<svg xmlns="http://www.w3.org/2000/svg" version="1.1" xmlns:xlink="http://www.w3.org/1999/xlink" viewBox="0 0 200 200"><rect width="200" height="200" fill="url('#gradient')"></rect><defs><linearGradient id="gradient" gradientTransform="rotate(0 0.5 0.5)"><stop offset="0%" stop-color="#dee90b"></stop><stop offset="100%" stop-color="#d9e241"></stop></linearGradient></defs><g><g fill="#1b3855" transform="matrix(1.9311645450259312,0,0,1.9311645450259312,-1.2095627783042886,110.56221942191189)" stroke="#0e5278" stroke-width="0"><path d="M8.41-3.78L8.41-3.78Q8.41-4.53 7.88-4.95Q7.34-5.37 6.01-5.82Q4.67-6.27 3.82-6.69L3.82-6.69Q1.05-8.05 1.05-10.42L1.05-10.42Q1.05-11.60 1.74-12.50Q2.43-13.41 3.69-13.91Q4.95-14.41 6.52-14.41L6.52-14.41Q8.06-14.41 9.27-13.87Q10.49-13.32 11.16-12.31Q11.84-11.30 11.84-10L11.84-10L8.42-10Q8.42-10.87 7.89-11.35Q7.35-11.83 6.45-11.83L6.45-11.83Q5.53-11.83 5.00-11.42Q4.46-11.02 4.46-10.39L4.46-10.39Q4.46-9.84 5.05-9.40Q5.63-8.96 7.11-8.48Q8.58-8.01 9.53-7.46L9.53-7.46Q11.84-6.13 11.84-3.80L11.84-3.80Q11.84-1.93 10.43-0.87Q9.02 0.20 6.57 0.20L6.57 0.20Q4.84 0.20 3.44-0.42Q2.04-1.04 1.33-2.12Q0.63-3.20 0.63-4.61L0.63-4.61L4.06-4.61Q4.06-3.47 4.65-2.92Q5.24-2.38 6.57-2.38L6.57-2.38Q7.42-2.38 7.92-2.75Q8.41-3.12 8.41-3.78ZM22.69 0L19.39 0Q19.22-0.32 19.08-0.95L19.08-0.95Q18.17 0.20 16.54 0.20L16.54 0.20Q15.05 0.20 14.00-0.71Q12.96-1.61 12.96-2.98L12.96-2.98Q12.96-4.70 14.23-5.58Q15.50-6.46 17.92-6.46L17.92-6.46L18.94-6.46L18.94-7.01Q18.94-8.47 17.68-8.47L17.68-8.47Q16.50-8.47 16.50-7.31L16.50-7.31L13.21-7.31Q13.21-8.85 14.52-9.80Q15.82-10.76 17.84-10.76Q19.86-10.76 21.04-9.78Q22.21-8.79 22.24-7.07L22.24-7.07L22.24-2.39Q22.26-0.94 22.69-0.17L22.69-0.17L22.69 0ZM17.33-2.15L17.33-2.15Q17.95-2.15 18.35-2.41Q18.76-2.68 18.94-3.01L18.94-3.01L18.94-4.70L17.98-4.70Q16.26-4.70 16.26-3.15L16.26-3.15Q16.26-2.71 16.56-2.43Q16.87-2.15 17.33-2.15ZM27.53-15L27.53 0L24.23 0L24.23-15L27.53-15ZM34.67 0.20L34.67 0.20Q32.24 0.20 30.73-1.25Q29.23-2.71 29.23-5.03L29.23-5.03L29.23-5.30Q29.23-6.92 29.83-8.16Q30.43-9.40 31.58-10.08Q32.73-10.76 34.32-10.76L34.32-10.76Q36.54-10.76 37.83-9.38Q39.12-8.00 39.12-5.53L39.12-5.53L39.12-4.25L32.58-4.25Q32.75-3.36 33.35-2.85Q33.95-2.34 34.89-2.34L34.89-2.34Q36.46-2.34 37.33-3.44L37.33-3.44L38.84-1.66Q38.22-0.81 37.09-0.31Q35.97 0.20 34.67 0.20ZM34.30-8.22L34.30-8.22Q32.85-8.22 32.58-6.31L32.58-6.31L35.90-6.31L35.90-6.56Q35.92-7.35 35.50-7.79Q35.08-8.22 34.30-8.22ZM45.98-2.97L45.98-2.97Q45.98-3.39 45.54-3.64Q45.10-3.90 43.87-4.17Q42.64-4.44 41.84-4.89Q41.04-5.33 40.62-5.97Q40.20-6.60 40.20-7.42L40.20-7.42Q40.20-8.88 41.40-9.82Q42.60-10.76 44.54-10.76L44.54-10.76Q46.63-10.76 47.90-9.81Q49.17-8.87 49.17-7.32L49.17-7.32L45.87-7.32Q45.87-8.59 44.53-8.59L44.53-8.59Q44.01-8.59 43.66-8.31Q43.31-8.02 43.31-7.59L43.31-7.59Q43.31-7.15 43.74-6.88Q44.17-6.60 45.11-6.43Q46.05-6.25 46.77-6.01L46.77-6.01Q49.15-5.19 49.15-3.07L49.15-3.07Q49.15-1.62 47.87-0.71Q46.58 0.20 44.54 0.20L44.54 0.20Q43.18 0.20 42.12-0.29Q41.05-0.78 40.46-1.62Q39.86-2.46 39.86-3.39L39.86-3.39L42.94-3.39Q42.96-2.66 43.43-2.32Q43.90-1.98 44.63-1.98L44.63-1.98Q45.30-1.98 45.64-2.26Q45.98-2.53 45.98-2.97ZM53.54-14.22L56.36-3.87L59.19-14.22L63.02-14.22L58.23 0L54.48 0L49.74-14.22L53.54-14.22ZM68.58 0.20L68.58 0.20Q66.15 0.20 64.65-1.25Q63.14-2.71 63.14-5.03L63.14-5.03L63.14-5.30Q63.14-6.92 63.75-8.16Q64.35-9.40 65.50-10.08Q66.65-10.76 68.23-10.76L68.23-10.76Q70.46-10.76 71.75-9.38Q73.04-8.00 73.04-5.53L73.04-5.53L73.04-4.25L66.49-4.25Q66.67-3.36 67.27-2.85Q67.86-2.34 68.81-2.34L68.81-2.34Q70.37-2.34 71.25-3.44L71.25-3.44L72.75-1.66Q72.14-0.81 71.01-0.31Q69.88 0.20 68.58 0.20ZM68.21-8.22L68.21-8.22Q66.77-8.22 66.49-6.31L66.49-6.31L69.81-6.31L69.81-6.56Q69.83-7.35 69.41-7.79Q68.99-8.22 68.21-8.22ZM80.81-10.64L80.75-7.59L79.67-7.67Q78.12-7.67 77.68-6.69L77.68-6.69L77.68 0L74.38 0L74.38-10.57L77.47-10.57L77.58-9.21Q78.41-10.76 79.89-10.76L79.89-10.76Q80.42-10.76 80.81-10.64L80.81-10.64ZM85.41-10.57L85.41 0L82.11 0L82.11-10.57L85.41-10.57ZM81.91-13.29L81.91-13.29Q81.91-13.99 82.42-14.44Q82.93-14.89 83.74-14.89Q84.55-14.89 85.06-14.44Q85.57-13.99 85.57-13.29Q85.57-12.59 85.06-12.14Q84.55-11.69 83.74-11.69Q82.93-11.69 82.42-12.14Q81.91-12.59 81.91-13.29ZM91.46 0L88.16 0L88.16-8.28L86.63-8.28L86.63-10.57L88.16-10.57L88.16-11.41Q88.16-13.21 89.23-14.21Q90.29-15.21 92.22-15.21L92.22-15.21Q92.92-15.21 93.76-15L93.76-15L93.77-12.58Q93.47-12.67 92.96-12.67L92.96-12.67Q91.46-12.67 91.46-11.38L91.46-11.38L91.46-10.57L93.53-10.57L93.53-8.28L91.46-8.28L91.46 0ZM97.24-10.57L98.91-4.61L100.66-10.57L104.19-10.57L99.88 1.77L99.70 2.22Q98.78 4.27 96.46 4.27L96.46 4.27Q95.81 4.27 95.10 4.07L95.10 4.07L95.10 1.72L95.53 1.72Q96.22 1.72 96.59 1.52Q96.95 1.32 97.13 0.80L97.13 0.80L97.39 0.10L93.72-10.57L97.24-10.57Z"></path></g></g></svg>